<?xml version="1.0" encoding="iso-8859-1"?>
<!-- Uploaded to: SVG Repo, www.svgrepo.com, Generator: SVG Repo Mixer Tools -->
<svg fill="#000000" height="800px" width="800px" version="1.1" id="Layer_1" xmlns="http://www.w3.org/2000/svg" xmlns:xlink="http://www.w3.org/1999/xlink" 
	 viewBox="0 0 512 512" xml:space="preserve">
<g>
	<g>
		<path d="M110.933,302.933c-23.526,0-42.667,19.14-42.667,42.667c0,23.526,19.14,42.667,42.667,42.667
			c23.526,0,42.667-19.14,42.667-42.667C153.6,322.074,134.46,302.933,110.933,302.933z M110.933,371.2
			c-14.114,0-25.6-11.486-25.6-25.6c0-14.114,11.486-25.6,25.6-25.6s25.6,11.486,25.6,25.6
			C136.533,359.714,125.047,371.2,110.933,371.2z"/>
	</g>
</g>
<g>
	<g>
		<path d="M243.2,294.4h-17.067c-2.355,0-4.267,1.911-4.267,4.267v17.067c0,2.355,1.911,4.267,4.267,4.267H243.2
			c2.355,0,4.267-1.911,4.267-4.267v-17.067C247.467,296.311,245.555,294.4,243.2,294.4z"/>
	</g>
</g>
<g>
	<g>
		<path d="M294.4,294.4h-17.067c-2.355,0-4.267,1.911-4.267,4.267v17.067c0,2.355,1.911,4.267,4.267,4.267H294.4
			c2.355,0,4.267-1.911,4.267-4.267v-17.067C298.667,296.311,296.755,294.4,294.4,294.4z"/>
	</g>
</g>
<g>
	<g>
		<path d="M320,260.267h-17.067c-2.355,0-4.267,1.911-4.267,4.267V281.6c0,2.355,1.911,4.267,4.267,4.267H320
			c2.355,0,4.267-1.911,4.267-4.267v-17.067C324.267,262.178,322.355,260.267,320,260.267z"/>
	</g>
</g>
<g>
	<g>
		<path d="M268.8,260.267h-17.067c-2.355,0-4.267,1.911-4.267,4.267V281.6c0,2.355,1.911,4.267,4.267,4.267H268.8
			c2.355,0,4.267-1.911,4.267-4.267v-17.067C273.067,262.178,271.155,260.267,268.8,260.267z"/>
	</g>
</g>
<g>
	<g>
		<path d="M217.6,260.267h-17.067c-2.355,0-4.267,1.911-4.267,4.267V281.6c0,2.355,1.911,4.267,4.267,4.267H217.6
			c2.355,0,4.267-1.911,4.267-4.267v-17.067C221.867,262.178,219.955,260.267,217.6,260.267z"/>
	</g>
</g>
<g>
	<g>
		<path d="M503.467,302.933v-51.2c0-3.678-2.347-6.938-5.837-8.098l-48.171-16.051c-21.009-34.987-50.586-56.781-92.553-68.173
			l-7.296-29.218c-0.956-3.789-4.361-6.46-8.277-6.46h-93.867c-3.917,0-7.322,2.671-8.277,6.46l-8.533,34.133
			c-0.009,0.017,0,0.043,0,0.06c-45.867,10.266-80.768,30.677-106.65,61.824C67.285,227.012,8.533,244.838,8.533,277.333v25.6
			c-4.719,0-8.533,3.823-8.533,8.533V345.6c0,4.71,3.814,8.533,8.533,8.533h34.133c4.719,0,8.533-3.823,8.533-8.533
			c0-32.939,26.803-59.733,59.733-59.733c32.93,0,59.733,26.795,59.733,59.733c0,4.71,3.814,8.533,8.533,8.533h153.6
			c4.719,0,8.533-3.823,8.533-8.533c0-32.939,26.803-59.733,59.733-59.733c32.93,0,59.733,26.795,59.733,59.733
			c0,4.71,3.814,8.533,8.533,8.533h34.133c4.719,0,8.533-3.823,8.533-8.533v-34.133C512,306.756,508.186,302.933,503.467,302.933z
			 M398.916,197.026c11.196,7.91,20.872,17.451,29.218,29.107h-34.065L398.916,197.026z M348.45,174.865
			c12.902,3.217,24.422,7.39,34.765,12.621l-6.443,38.647h-92.774l13.082-52.352C312.704,173.312,329.754,173.602,348.45,174.865z
			 M254.131,140.8h80.538l4.122,16.469c-33.417-1.698-63.215-0.512-89.685,3.644L254.131,140.8z M279.27,174.669l-12.86,51.465
			H146.935C169.583,203.315,207.258,179.994,279.27,174.669z M494.933,337.067h-17.544c-4.258-38.349-36.855-68.267-76.322-68.267
			s-72.064,29.918-76.322,68.267H187.255c-4.258-38.349-36.855-68.267-76.322-68.267s-72.064,29.918-76.322,68.267H17.067V320
			c4.719,0,8.533-3.823,8.533-8.533v-25.6h8.533c4.719,0,8.533-3.823,8.533-8.533s-3.814-8.533-8.533-8.533h-4.437
			C41.242,256.265,76.57,243.2,128,243.2h314.351l44.049,14.686V268.8h-8.533c-4.719,0-8.533,3.823-8.533,8.533
			s3.814,8.533,8.533,8.533h8.533v25.6c0,4.71,3.814,8.533,8.533,8.533V337.067z"/>
	</g>
</g>
<g>
	<g>
		<path d="M401.067,302.933c-23.526,0-42.667,19.14-42.667,42.667c0,23.526,19.14,42.667,42.667,42.667
			c23.526,0,42.667-19.14,42.667-42.667C443.733,322.074,424.593,302.933,401.067,302.933z M401.067,371.2
			c-14.114,0-25.6-11.486-25.6-25.6c0-14.114,11.486-25.6,25.6-25.6c14.114,0,25.6,11.486,25.6,25.6
			C426.667,359.714,415.181,371.2,401.067,371.2z"/>
	</g>
</g>
</svg>