<?xml version="1.0" encoding="iso-8859-1"?>
<!-- Uploaded to: SVG Repo, www.svgrepo.com, Generator: SVG Repo Mixer Tools -->
<svg fill="#000000" height="800px" width="800px" version="1.1" id="Layer_1" xmlns="http://www.w3.org/2000/svg" xmlns:xlink="http://www.w3.org/1999/xlink" 
	 viewBox="0 0 511.999 511.999" xml:space="preserve">
<g>
	<g>
		<path d="M400.901,285.271c-23.553,0-42.714,19.162-42.714,42.714c0,23.553,19.162,42.714,42.714,42.714
			c23.553,0,42.714-19.162,42.714-42.714C443.615,304.432,424.453,285.271,400.901,285.271z M400.901,353.614
			c-14.13,0-25.629-11.499-25.629-25.629c0-14.13,11.499-25.629,25.629-25.629c14.13,0,25.629,11.499,25.629,25.629
			C426.529,342.115,415.031,353.614,400.901,353.614z"/>
	</g>
</g>
<g>
	<g>
		<path d="M110.443,285.271c-23.553,0-42.714,19.162-42.714,42.714c0,23.553,19.162,42.714,42.714,42.714
			c23.553,0,42.714-19.162,42.714-42.714C153.157,304.432,133.996,285.271,110.443,285.271z M110.443,353.614
			c-14.13,0-25.629-11.499-25.629-25.629c0-14.13,11.499-25.629,25.629-25.629c14.13,0,25.629,11.499,25.629,25.629
			C136.072,342.115,124.573,353.614,110.443,353.614z"/>
	</g>
</g>
<g>
	<g>
		<path d="M503.415,257.575v-40.647c0-0.273-0.325-1.879-0.495-2.435c-0.171-0.564-0.376-1.076-0.649-1.589
			c-0.128-0.231-34.462-51.975-34.462-51.975c-1.307-1.956-3.366-3.298-5.698-3.69c-214.016-35.923-268.87-0.145-271.364,1.598
			l-66.352,49.762l-108.58,8.346c-3.075,0.239-5.784,2.11-7.082,4.904c-0.786,1.674-18.922,41.706-0.495,108.409
			c1.025,3.708,4.391,6.27,8.235,6.27H42.1c4.716,0,8.543-3.827,8.543-8.543c0-32.976,26.825-59.8,59.8-59.8s59.8,26.825,59.8,59.8
			c0,4.716,3.827,8.543,8.543,8.543h153.772c4.716,0,8.543-3.827,8.543-8.543c0-32.976,26.825-59.8,59.8-59.8
			c32.976,0,59.8,26.825,59.8,59.8c0,4.716,3.827,8.543,8.543,8.543h25.629c3.084,0,5.929-1.666,7.449-4.357
			C521.031,298.905,507.593,266.177,503.415,257.575z M455.635,173.479l23.271,34.906H388.77l-26.842-46.969
			C388.872,163.74,419.874,167.558,455.635,173.479z M289.843,158.486c14.95-0.222,32.147,0.154,51.898,1.401
			c0.171,0.487,0.222,1,0.487,1.469l26.876,47.029l-79.261,0.009V158.486z M200.613,172.77c0.299-0.188,18.222-11.046,72.145-13.745
			v49.369l-119.643,0.009L200.613,172.77z M489.644,319.442h-12.327c-4.263-38.392-36.905-68.343-76.416-68.343
			s-72.153,29.951-76.416,68.343H186.859c-4.263-38.392-36.905-68.343-76.416-68.343c-39.511,0-72.153,29.951-76.416,68.343H23.066
			c-4.98-20.238-6.168-37.367-5.749-51.257h7.689c4.716,0,8.543-3.827,8.543-8.543c0-4.716-3.827-8.543-8.543-8.543h-6.271
			c1.153-7.842,2.682-13.874,3.853-17.53l104.941-8.099h358.801v17.086h-8.543c-4.716,0-8.543,3.827-8.543,8.543
			c0,4.716,3.827,8.543,8.543,8.543h8.543c0,1.444,0.384,2.896,1.085,4.16C488.055,264.973,502.433,291.558,489.644,319.442z"/>
	</g>
</g>
</svg>